<svg width="390" height="297" viewBox="0 0 390 297" fill="none" xmlns="http://www.w3.org/2000/svg">
  <path d="M376.598 0H13.4024C6.00082 0 0 6.00152 0 13.4057V283.519C0 290.923 6.00082 296.925 13.4024 296.925H376.597C383.999 296.925 389.999 290.923 389.999 283.519V13.4057C390 6.00152 383.999 0 376.598 0Z" fill="#6D4E98"/>
  <path d="M390 283.517V13.4084C390 5.99891 383.997 0.00195312 376.597 0.00195312H355.017C362.417 0.00195312 368.421 5.99891 368.421 13.4084V283.516C368.421 290.925 362.417 296.922 355.017 296.922H376.597C383.997 296.922 390 290.926 390 283.517Z" fill="#9D85BF"/>
  <path d="M390 58.0538V13.4084C390 5.99891 383.997 0.00195312 376.597 0.00195312H13.4032C6.00311 0.00271503 0 5.99967 0 13.4084V58.0538H390Z" fill="#E3F4FF"/>
  <path d="M390 58.0538V13.4084C390 5.99891 383.997 0.00195312 376.597 0.00195312H355.017C362.417 0.00195312 368.421 5.99891 368.421 13.4084V58.0538H390Z" fill="#BDDFF4"/>
  <path d="M75.4155 34.8589H75.3416C72.0913 34.8589 69.4565 32.2235 69.4565 28.9724C69.4565 25.7214 72.0913 23.0859 75.3416 23.0859C78.5918 23.0859 81.2639 25.7214 81.2639 28.9724C81.2639 32.2235 78.6657 34.8589 75.4155 34.8589Z" fill="#54DDAC"/>
  <path d="M56.1326 34.9149C52.9105 34.9149 50.2826 32.3198 50.2491 29.0893C50.2148 25.8383 52.8221 23.1754 56.0724 23.1412C59.2876 23.0977 62.0214 25.7149 62.0557 28.9659C62.09 32.2177 59.5192 34.8798 56.2689 34.9141L56.195 34.9149C56.1745 34.9149 56.1531 34.9149 56.1326 34.9149Z" fill="#FDC142"/>
  <path d="M36.9243 34.971C33.7022 34.971 31.0735 32.3759 31.0408 29.1455C31.0073 25.8936 33.6146 23.2308 36.8649 23.1973C36.8855 23.1973 36.9068 23.1973 36.9266 23.1973C40.1494 23.1973 42.8139 25.7923 42.8474 29.0228C42.8809 32.2738 40.3109 34.9367 37.0599 34.9702L36.986 34.971C36.9662 34.971 36.9449 34.971 36.9243 34.971Z" fill="#FC3E81"/>
  <path d="M131.659 34.9712H111.235C107.985 34.9712 105.35 32.3358 105.35 29.0847C105.35 25.8337 107.985 23.1982 111.235 23.1982H131.659C134.91 23.1982 137.544 25.8337 137.544 29.0847C137.544 32.3358 134.91 34.9712 131.659 34.9712Z" fill="#BDDFF4"/>
  <path d="M126.658 141.484H121.552V134.53C121.552 128.731 116.846 124.031 111.04 124.031C105.235 124.031 100.528 128.731 100.528 134.53V141.484H75.9981L93.6621 111.618C96.6145 106.626 94.9558 100.189 89.957 97.2403C84.9581 94.291 78.5124 95.9482 75.56 100.94L48.5292 146.643C46.6099 149.889 46.5802 153.913 48.4507 157.186C50.3219 160.46 53.8061 162.481 57.5806 162.481H100.529V194.12C100.529 199.918 105.235 204.618 111.041 204.618C116.847 204.618 121.553 199.918 121.553 194.12V162.481H126.659C132.464 162.481 137.171 157.781 137.171 151.983C137.17 146.184 132.464 141.484 126.658 141.484Z" fill="#FD9E28"/>
  <path d="M332.419 141.484H327.314V134.53C327.314 128.731 322.608 124.031 316.802 124.031C310.996 124.031 306.29 128.731 306.29 134.53V141.484H281.759L299.423 111.618C302.375 106.626 300.717 100.189 295.718 97.2403C290.719 94.291 284.273 95.9482 281.321 100.94L254.29 146.643C252.371 149.889 252.341 153.913 254.211 157.186C256.083 160.46 259.567 162.481 263.341 162.481H306.29V194.12C306.29 199.918 310.996 204.618 316.802 204.618C322.608 204.618 327.314 199.918 327.314 194.12V162.481H332.419C338.225 162.481 342.931 157.781 342.931 151.983C342.931 146.184 338.225 141.484 332.419 141.484Z" fill="#FD9E28"/>
  <path fill-rule="evenodd" clip-rule="evenodd" d="M181.549 204.616H208.451C221.76 204.616 232.589 193.803 232.589 180.511V119.884C232.589 106.592 221.76 95.7783 208.451 95.7783H181.549C168.24 95.7783 157.412 106.592 157.412 119.884V180.511C157.412 193.802 168.24 204.616 181.549 204.616ZM180.368 124.036C180.368 121.097 182.763 118.705 185.706 118.705H204.295C207.237 118.705 209.632 121.097 209.632 124.036V176.359C209.632 179.298 207.237 181.689 204.295 181.689H185.706C182.763 181.689 180.368 179.298 180.368 176.359V124.036Z" fill="#FD9E28"/>
  <path d="M283.273 272.471C280.01 272.471 277.328 269.825 277.328 266.562C277.328 263.299 279.935 260.654 283.198 260.654H283.273C286.536 260.654 289.181 263.299 289.181 266.562C289.181 269.825 286.536 272.471 283.273 272.471Z" fill="#E3F4FF"/>
  <path d="M302.84 272.527C299.577 272.527 296.894 269.882 296.894 266.619C296.894 263.356 299.502 260.711 302.766 260.711H302.84C306.103 260.711 308.749 263.356 308.749 266.619C308.749 269.882 306.103 272.527 302.84 272.527Z" fill="#E3F4FF"/>
  <path d="M322.409 272.584C322.389 272.584 322.368 272.584 322.347 272.584C319.084 272.551 316.429 269.878 316.462 266.615C316.496 263.373 319.097 260.767 322.332 260.767C322.353 260.767 322.373 260.767 322.394 260.767L322.469 260.767C325.732 260.801 328.35 263.473 328.316 266.737C328.283 269.978 325.643 272.584 322.409 272.584Z" fill="#E3F4FF"/>
  <path d="M69.8371 248.205H50.2698C47.0068 248.205 44.3617 245.583 44.3617 242.349C44.3617 239.114 47.0068 236.492 50.2698 236.492H69.8371C73.1001 236.492 75.7452 239.114 75.7452 242.349C75.7452 245.583 73.1001 248.205 69.8371 248.205Z" fill="#E3F4FF"/>
  <path d="M89.4044 272.53H50.2698C47.0068 272.53 44.3617 269.908 44.3617 266.674C44.3617 263.439 47.0068 260.817 50.2698 260.817H89.4044C92.6674 260.817 95.3125 263.439 95.3125 266.674C95.3125 269.908 92.6674 272.53 89.4044 272.53Z" fill="#E3F4FF"/>
  </svg>
  