<svg width="1024" height="1024" viewBox="0 0 1024 1024" fill="none" xmlns="http://www.w3.org/2000/svg">
<g clip-path="url(#clip0_5_2)">
<rect width="1024" height="1024" fill="white"/>
<path d="M27.4089 344.44C24.3795 348.486 29.326 355.745 61.5271 382.282C71.7948 390.745 87.7274 403.697 96.9329 411.067C106.138 418.435 120.084 430.019 127.925 436.809C135.765 443.598 143.876 450.455 145.95 452.047C147.824 453.486 148.689 454.31 148.743 454.962L151.007 452.047L523.089 296.818C523.089 296.818 406.106 173.45 404.5 171.658C402.894 169.867 399.228 167.38 397 168.658C394.772 169.937 27.4089 344.44 27.4089 344.44Z" fill="#574576"/>
<path d="M899.91 453.841L903.978 449.935C906.215 447.786 913.313 441.787 919.75 436.603C926.189 431.418 949.363 412.239 971.249 393.981C993.136 375.723 1013.54 358.724 1016.59 356.208C1024.26 349.874 1026.01 343.566 1016.59 340.658C1016.59 340.658 683.81 172.384 681.5 170.658C679.19 168.933 673.068 170.702 670.5 173.158C667.932 175.615 637 202.658 637 202.658L523.089 296.818L895.171 450.626L899.91 453.841Z" fill="#574576"/>
<path d="M151.007 452.047L220.531 473.787L344.129 512.435L373.097 521.494L499.313 560.961L523.089 568.395L529.4 567.03L656.343 526.631L685.748 517.273L821.463 474.083L895.171 450.626L523.089 296.818L151.007 452.047Z" fill="#25194C"/>
<path d="M220.531 490.537V529.787L344.129 568.435L345.417 462.864C345.417 462.864 345.498 400.269 345.496 397.658C345.494 395.048 344.472 394.399 341.5 394.158L224.562 394.207C221.503 394.304 220.579 395.028 220.531 397.682C220.483 400.336 220.531 490.537 220.531 490.537Z" fill="#312258"/>
<path d="M500.885 424.829L500.862 372.074C500.862 372.074 500.999 293.51 500.862 290.627C500.725 287.743 499.884 286.995 497.5 286.658H378.5C375.583 287.15 374.588 287.914 374.385 290.48C374.182 293.046 374.385 341.234 374.385 341.234V359.897L373.097 457.716V577.494L499.313 616.961L500.885 424.829Z" fill="#BFACDF"/>
<path d="M500.885 424.829L500.862 372.074C500.862 372.074 500.999 293.51 500.862 290.627C500.725 287.743 499.884 286.995 497.5 286.658H378.5C375.583 287.15 374.588 287.914 374.385 290.48C374.182 293.046 374.385 341.234 374.385 341.234V359.897L373.097 457.716V577.494L499.313 616.961L500.885 424.829Z" fill="#312258"/>
<path d="M656.343 451.444L656.243 393.945C656.189 362.323 655.652 329.232 655.142 301.977C655.129 301.291 655.136 296.811 655.142 292.356V292.337V292.282L655.142 292V282.895C655.142 282.895 654.825 233.637 655.142 230.658C655.459 227.679 654.627 226.87 651.5 226.814H570C570 226.814 536.764 226.355 533.599 226.814C530.433 227.273 529.6 228.103 529.446 230.658C529.291 233.213 529.446 321.186 529.446 321.186L529.4 327.185C528.895 393.508 528.331 416.622 527.193 417.709L529.4 623.03L656.343 582.631V451.444Z" fill="#312258"/>
<path d="M685.748 458.715V573.273L821.462 530.083V489.893L819.853 340.84V224.255C819.853 224.255 820.034 115.14 819.853 112.701C819.672 110.262 818.904 109.515 816.5 109.158C814.096 108.802 691.5 109.158 691.5 109.158C688.301 109.347 687.519 110.18 687.5 112.658C687.481 115.137 686.599 307.769 686.599 307.769C686.573 397.155 686.2 458.263 685.748 458.715Z" fill="#312258"/>
<path d="M147.788 456.191C146.726 456.88 136.877 463.006 125.901 469.805C101.621 484.847 41.1901 524.754 28.4415 534.165C11.8175 546.435 12.6479 549.287 35.2934 557.72C43.7033 560.853 72.0201 571.077 98.2203 580.441L145.857 597.468L364.085 668.145C374.392 670.604 380.17 670.951 390.478 669.432L523.089 568.395L499.313 560.961L373.097 521.494L344.129 512.435L220.531 473.787L151.007 452.047L148.743 454.962C148.78 455.405 148.441 455.769 147.788 456.191Z" fill="#574576"/>
<path d="M899.677 595.424L960.832 575.474C994.307 564.534 1024.51 554.536 1026.82 553.594C1027 553.518 1027.18 553.445 1027.35 553.376L1027.36 553.373L1027.36 553.37C1030.25 552.198 1031 551.894 1031 549.126C1031 546.652 1029.63 544.158 1026.82 541.489C1021.24 536.209 982.193 508.894 936.809 478.529L899.91 453.841L895.171 450.626L821.463 474.083L685.748 517.273L656.343 526.631L529.4 567.03L523.089 568.395L655.699 669.432C662.746 671.939 666.682 672.102 673.724 670.076L899.033 593.493L899.677 595.424Z" fill="#574576"/>
<path d="M145.857 597.468L146.666 615.29C147.11 625.093 147.545 681.781 147.631 741.263C147.79 850.708 148.414 867.53 152.571 874.565C155.451 879.441 161.624 882.544 178.044 887.369C185.833 889.659 206.691 896.626 224.393 902.852C242.096 909.079 280.045 921.422 308.723 930.284C370.465 949.36 413.752 963.309 471.59 982.766C509.322 995.46 515.301 997.125 525.02 997.643L523.733 888.883L395.628 881.804L241.131 873.438L224.393 872.794L221.175 870.22L219.887 715.768L223.106 713.194L227.612 712.55L523.089 707.402V568.395L390.478 669.432C380.17 670.951 374.392 670.604 364.085 668.145L145.857 597.468Z" fill="#48366D"/>
<path d="M522.089 706.418L227.594 711.55L227.533 711.551L227.47 711.56L222.965 712.204L222.694 712.243L222.481 712.413L219.262 714.987L218.883 715.291L218.887 715.776L220.174 870.228L220.178 870.704L220.55 871L223.769 873.575L224.026 873.781L224.355 873.793L241.092 874.437V874.436L395.573 882.801V882.802L522.744 889.83L524.007 996.581C515.037 995.998 508.267 994.05 471.909 981.819C414.063 962.359 370.767 948.406 309.018 929.328C280.346 920.468 242.411 908.13 224.725 901.909C208.128 896.072 188.741 889.576 179.941 886.894L178.326 886.41C170.123 883.999 164.549 882.037 160.679 880.092C157.071 878.278 155.011 876.511 153.687 874.468L153.432 874.056C152.485 872.452 151.692 870.223 151.056 866.01C150.419 861.792 149.949 855.656 149.601 846.281C148.907 827.537 148.711 795.99 148.632 741.261C148.545 681.794 148.11 625.077 147.665 615.246V615.245L146.921 598.864L363.777 669.096L363.814 669.109L363.853 669.118C374.274 671.604 380.18 671.96 390.624 670.421L390.88 670.384L391.085 670.228L522.089 570.415V706.418Z" stroke="white" stroke-width="2"/>
<path d="M525.02 997.643C535.245 998.187 536.936 997.886 550.77 993.05C581.414 982.34 652.459 959.072 734.88 932.748C865.83 890.928 881.576 885.279 890.344 876.985C891.793 875.613 892.998 874.708 893.997 873.615C899.29 867.823 898.816 856.763 898.509 743.16C898.329 676.263 898.589 616.001 899.086 609.242L899.677 595.424L899.033 593.493L673.724 670.076C666.682 672.102 662.746 671.939 655.699 669.432L523.089 568.395V707.402L549.482 705.471L631.237 694.531L829.509 653.344H831.441V830.068L691.561 863.141L585.532 881.804L523.733 888.883L525.02 997.643Z" fill="#48366D"/>
<path d="M525.02 997.643C535.245 998.187 536.936 997.886 550.77 993.05C581.414 982.34 652.459 959.072 734.88 932.748C865.83 890.928 881.576 885.279 890.344 876.985C891.793 875.613 892.998 874.708 893.997 873.615C899.29 867.823 898.816 856.763 898.509 743.16C898.329 676.263 898.589 616.001 899.086 609.242L899.677 595.424L899.033 593.493L673.724 670.076C666.682 672.102 662.746 671.939 655.699 669.432L523.089 568.395V707.402L549.482 705.471L631.237 694.531L829.509 653.344H831.441V830.068L691.561 863.141L585.532 881.804L523.733 888.883L525.02 997.643Z" fill="#35275D"/>
<path d="M655.094 670.227L655.217 670.322L655.364 670.375C658.933 671.644 661.788 672.347 664.677 672.454C667.569 672.56 670.427 672.065 674.001 671.037L674.024 671.03L674.046 671.022L898.402 594.763L898.669 595.564L898.087 609.2C897.588 616.157 897.329 676.398 897.509 743.163C897.662 799.978 897.858 831.119 897.354 848.788C897.101 857.63 896.675 863.035 895.996 866.575C895.326 870.072 894.425 871.664 893.258 872.941C892.798 873.444 892.283 873.913 891.679 874.445C891.082 874.97 890.398 875.557 889.656 876.258C885.444 880.243 879.508 883.672 858.093 891.353C836.712 899.022 800.058 910.883 734.575 931.795C652.156 958.119 581.099 981.391 550.44 992.106C543.503 994.53 539.702 995.784 536.366 996.379C533.268 996.932 530.546 996.918 526.008 996.69L524.742 889.773L585.646 882.797L585.676 882.793L585.705 882.789L691.734 864.125L691.763 864.121L691.791 864.114L831.671 831.042L832.441 830.859V652.343H829.406L829.306 652.365L631.065 693.544L549.39 704.474L524.089 706.326V570.415L655.094 670.227Z" stroke="white" stroke-width="2"/>
<mask id="path-13-inside-1_5_2" fill="white">
<path fill-rule="evenodd" clip-rule="evenodd" d="M225.506 872.609L242.243 873.252L396.741 881.619L524.845 888.698L586.644 881.619L692.674 862.956L832.553 829.883V653.158H830.622L632.35 694.346L550.595 705.286L524.202 707.217L228.725 712.365L224.219 713.008L221 715.583L222.287 870.035L225.506 872.609ZM781.054 723.217C781.054 722.785 778.591 721.176 775.582 719.64C768.686 716.121 755.33 715.172 748.504 717.717C737.764 721.721 729.646 729.818 726.95 739.217C723.332 751.826 727.464 765.883 736.071 770.251C738.592 771.53 745.503 773.55 751.428 774.738C766.928 777.846 770.782 783.203 763.63 791.701C757.264 799.265 746.11 800.145 737.719 793.747C735.26 791.872 733.089 790.541 732.896 790.789C723.144 803.287 721.579 806.12 723.283 808.181C726.788 812.415 737.535 816.314 745.741 816.327C757.524 816.346 765.053 813.222 773.408 804.851C781.784 796.456 784.25 789.755 783.38 777.745C782.433 764.636 776.872 759.508 759.15 755.397C749.69 753.202 746.704 751.945 744.757 749.34C742.777 746.688 742.557 745.381 743.622 742.584C746.407 735.258 759.294 731.554 766.892 735.896C768.662 736.908 770.791 737.756 771.626 737.781C772.949 737.821 781.054 725.302 781.054 723.217ZM697.368 750.645C705.865 738.465 712.817 728.281 712.817 728.015C712.817 727.232 706.245 727.77 699.205 729.13L692.674 730.39L676.146 754.058C667.055 767.076 659.359 777.727 659.043 777.727C658.727 777.727 658.674 768.653 658.927 757.563C659.217 744.832 658.912 737.256 658.1 737.013C657.391 736.801 653.336 737.331 649.087 738.192L641.362 739.757L641.025 787.702C640.84 814.07 641.082 835.646 641.563 835.646C642.045 835.646 646.108 835.008 650.591 834.226L658.743 832.808L658.747 819.103L658.751 805.399L663.685 797.98L668.618 790.563L681.236 807.344C688.175 816.574 694.399 824.462 695.066 824.874C696.482 825.749 716.692 822.664 716.657 821.578C716.644 821.174 708.822 810.437 699.276 797.717C689.729 784.997 681.918 774.184 681.918 773.689C681.918 773.195 688.87 762.825 697.368 750.645ZM619.07 751.823C616.873 749.86 612.049 747.356 608.351 746.258C582.698 738.643 555.718 753.95 546.621 781.282C544.437 787.841 544.003 791.801 544.36 801.938C544.75 813.032 545.29 815.472 549.043 823.087C555.131 835.435 563.838 842.04 577.429 844.617C585.622 846.171 597.793 844.289 605.779 840.233C612.485 836.828 623.981 827.186 623.981 824.967C623.981 824.169 621.571 821.062 618.627 818.062L613.272 812.607L607.171 818.091C587.288 835.963 563.47 824.423 563.47 796.92C563.47 772.778 583.827 756.089 602.779 764.696C605.635 765.992 608.994 768.076 610.244 769.326C611.494 770.575 612.708 771.384 612.944 771.123C613.178 770.861 615.551 767.215 618.217 763.019L623.065 755.39L619.07 751.823ZM495.209 848.526C534.504 833.835 535.768 770.395 497.054 755.916C484.824 751.341 466.068 752.779 455.938 759.069C449.208 763.247 441.034 771.753 438.009 777.727C430.836 791.885 430.316 811.003 436.716 825.26C441.207 835.263 451.997 845.586 461.492 848.965C470.843 852.292 485.653 852.099 495.209 848.526ZM333.654 767.062C333.654 764.67 320.574 757.441 313.5 755.923C291.267 751.157 275.106 761.693 275.123 780.944C275.137 795.997 281.063 802.979 298.997 809.076C316.648 815.079 321.347 819.414 317.145 825.825C312.183 833.397 297.76 832.867 288.391 824.77L283.498 820.543L277.356 825.722C273.976 828.571 271.212 831.619 271.212 832.496C271.212 834.7 279.177 841.489 285.732 844.871C292.315 848.266 308.984 849.549 317.313 847.301C323.831 845.541 332.68 838.019 335.139 832.148C337.216 827.187 337.404 816.624 335.503 811.597C332.456 803.532 324.301 797.883 306.85 791.752C302.022 790.056 296.952 787.631 295.585 786.364C289.782 780.989 295.33 772.578 304.678 772.578C307.399 772.578 312.645 774.178 316.808 776.277L324.143 779.975L328.899 774.287C331.515 771.159 333.654 767.907 333.654 767.062ZM418.628 773.222L419.009 764.534L419.389 755.846H384.827C364.804 755.846 349.748 756.358 349.04 757.065C348.368 757.734 348.012 761.788 348.253 766.074L348.69 773.865H361.45H374.21L374.219 803.147C374.224 819.252 374.6 836.362 375.055 841.169L375.88 849.91L385.019 849.535L394.158 849.161L393.708 811.561L393.258 773.962L405.943 773.591L418.628 773.222Z"/>
<path d="M470.604 772.536C464.523 774.375 459.175 779.42 455.606 786.683C445.422 807.416 458.029 833.108 478.366 833.064C489.36 833.041 500.854 824.576 503.959 814.214C505.856 807.882 505.99 796.798 504.243 790.514C502.594 784.575 494.626 775.306 489.238 773.054C484.662 771.143 476.007 770.902 470.604 772.536Z"/>
<path d="M313.5 755.923C320.574 757.441 333.654 764.67 333.654 767.062C333.654 767.907 331.515 771.159 328.899 774.287L324.143 779.975L316.808 776.277C312.645 774.178 307.399 772.578 304.678 772.578C295.33 772.578 289.782 780.989 295.585 786.364C296.952 787.631 302.022 790.056 306.85 791.752C324.301 797.883 332.456 803.532 335.503 811.597C337.404 816.624 337.216 827.187 335.139 832.148C332.68 838.019 323.831 845.541 317.313 847.301C308.984 849.549 292.315 848.266 285.732 844.871C279.177 841.489 271.212 834.7 271.212 832.496C271.212 831.619 273.976 828.571 277.356 825.722L283.498 820.543L288.391 824.77C297.76 832.867 312.183 833.397 317.145 825.825C321.347 819.414 316.648 815.079 298.997 809.076C281.063 802.979 275.137 795.997 275.123 780.944C275.106 761.693 291.267 751.157 313.5 755.923Z"/>
<path d="M419.009 764.534L418.628 773.222L405.943 773.591L393.258 773.962L393.708 811.561L394.158 849.161L385.019 849.535L375.88 849.91L375.055 841.169C374.6 836.362 374.224 819.252 374.219 803.147L374.21 773.865H361.45H348.69L348.253 766.074C348.012 761.788 348.368 757.734 349.04 757.065C349.748 756.358 364.804 755.846 384.827 755.846H419.389L419.009 764.534Z"/>
<path fill-rule="evenodd" clip-rule="evenodd" d="M497.054 755.916C535.768 770.395 534.504 833.835 495.209 848.526C485.653 852.099 470.843 852.292 461.492 848.965C451.997 845.586 441.207 835.263 436.716 825.26C430.316 811.003 430.836 791.885 438.009 777.727C441.034 771.753 449.208 763.247 455.938 759.069C466.068 752.779 484.824 751.341 497.054 755.916ZM455.606 786.683C459.175 779.42 464.523 774.375 470.604 772.536C476.007 770.902 484.662 771.143 489.238 773.054C494.626 775.306 502.594 784.575 504.243 790.514C505.99 796.798 505.856 807.882 503.959 814.214C500.854 824.576 489.36 833.041 478.366 833.064C458.029 833.108 445.422 807.416 455.606 786.683Z"/>
<path d="M608.351 746.258C612.049 747.356 616.873 749.86 619.07 751.823L623.065 755.39L618.217 763.019C615.551 767.215 613.178 770.861 612.944 771.123C612.708 771.384 611.494 770.575 610.244 769.326C608.994 768.076 605.635 765.992 602.779 764.696C583.827 756.089 563.47 772.778 563.47 796.92C563.47 824.423 587.288 835.963 607.171 818.091L613.272 812.607L618.627 818.062C621.571 821.062 623.981 824.169 623.981 824.967C623.981 827.186 612.485 836.828 605.779 840.233C597.793 844.289 585.622 846.171 577.429 844.617C563.838 842.04 555.131 835.435 549.043 823.087C545.29 815.472 544.75 813.032 544.36 801.938C544.003 791.801 544.437 787.841 546.621 781.282C555.718 753.95 582.698 738.643 608.351 746.258Z"/>
<path d="M712.817 728.015C712.817 728.281 705.865 738.465 697.368 750.645C688.87 762.825 681.918 773.195 681.918 773.689C681.918 774.184 689.729 784.997 699.276 797.717C708.822 810.437 716.644 821.174 716.657 821.578C716.692 822.664 696.482 825.749 695.066 824.874C694.399 824.462 688.175 816.574 681.236 807.344L668.618 790.563L663.685 797.98L658.751 805.399L658.747 819.103L658.743 832.808L650.591 834.226C646.108 835.008 642.045 835.646 641.563 835.646C641.082 835.646 640.84 814.07 641.025 787.702L641.362 739.757L649.087 738.192C653.336 737.331 657.391 736.801 658.1 737.013C658.912 737.256 659.217 744.832 658.927 757.563C658.674 768.653 658.727 777.727 659.043 777.727C659.359 777.727 667.055 767.076 676.146 754.058L692.674 730.39L699.205 729.13C706.245 727.77 712.817 727.232 712.817 728.015Z"/>
<path d="M775.582 719.64C778.591 721.176 781.054 722.785 781.054 723.217C781.054 725.302 772.949 737.821 771.626 737.781C770.791 737.756 768.662 736.908 766.892 735.896C759.294 731.554 746.407 735.258 743.622 742.584C742.557 745.381 742.777 746.688 744.757 749.34C746.704 751.945 749.69 753.202 759.15 755.397C776.872 759.508 782.433 764.636 783.38 777.745C784.25 789.755 781.784 796.456 773.408 804.851C765.053 813.222 757.524 816.346 745.741 816.327C737.535 816.314 726.788 812.415 723.283 808.181C721.579 806.12 723.144 803.287 732.896 790.789C733.089 790.541 735.26 791.872 737.719 793.747C746.11 800.145 757.264 799.265 763.63 791.701C770.782 783.203 766.928 777.846 751.428 774.738C745.503 773.55 738.592 771.53 736.071 770.251C727.464 765.883 723.332 751.826 726.95 739.217C729.646 729.818 737.764 721.721 748.504 717.717C755.33 715.172 768.686 716.121 775.582 719.64Z"/>
</mask>
<path fill-rule="evenodd" clip-rule="evenodd" d="M225.506 872.609L242.243 873.252L396.741 881.619L524.845 888.698L586.644 881.619L692.674 862.956L832.553 829.883V653.158H830.622L632.35 694.346L550.595 705.286L524.202 707.217L228.725 712.365L224.219 713.008L221 715.583L222.287 870.035L225.506 872.609ZM781.054 723.217C781.054 722.785 778.591 721.176 775.582 719.64C768.686 716.121 755.33 715.172 748.504 717.717C737.764 721.721 729.646 729.818 726.95 739.217C723.332 751.826 727.464 765.883 736.071 770.251C738.592 771.53 745.503 773.55 751.428 774.738C766.928 777.846 770.782 783.203 763.63 791.701C757.264 799.265 746.11 800.145 737.719 793.747C735.26 791.872 733.089 790.541 732.896 790.789C723.144 803.287 721.579 806.12 723.283 808.181C726.788 812.415 737.535 816.314 745.741 816.327C757.524 816.346 765.053 813.222 773.408 804.851C781.784 796.456 784.25 789.755 783.38 777.745C782.433 764.636 776.872 759.508 759.15 755.397C749.69 753.202 746.704 751.945 744.757 749.34C742.777 746.688 742.557 745.381 743.622 742.584C746.407 735.258 759.294 731.554 766.892 735.896C768.662 736.908 770.791 737.756 771.626 737.781C772.949 737.821 781.054 725.302 781.054 723.217ZM697.368 750.645C705.865 738.465 712.817 728.281 712.817 728.015C712.817 727.232 706.245 727.77 699.205 729.13L692.674 730.39L676.146 754.058C667.055 767.076 659.359 777.727 659.043 777.727C658.727 777.727 658.674 768.653 658.927 757.563C659.217 744.832 658.912 737.256 658.1 737.013C657.391 736.801 653.336 737.331 649.087 738.192L641.362 739.757L641.025 787.702C640.84 814.07 641.082 835.646 641.563 835.646C642.045 835.646 646.108 835.008 650.591 834.226L658.743 832.808L658.747 819.103L658.751 805.399L663.685 797.98L668.618 790.563L681.236 807.344C688.175 816.574 694.399 824.462 695.066 824.874C696.482 825.749 716.692 822.664 716.657 821.578C716.644 821.174 708.822 810.437 699.276 797.717C689.729 784.997 681.918 774.184 681.918 773.689C681.918 773.195 688.87 762.825 697.368 750.645ZM619.07 751.823C616.873 749.86 612.049 747.356 608.351 746.258C582.698 738.643 555.718 753.95 546.621 781.282C544.437 787.841 544.003 791.801 544.36 801.938C544.75 813.032 545.29 815.472 549.043 823.087C555.131 835.435 563.838 842.04 577.429 844.617C585.622 846.171 597.793 844.289 605.779 840.233C612.485 836.828 623.981 827.186 623.981 824.967C623.981 824.169 621.571 821.062 618.627 818.062L613.272 812.607L607.171 818.091C587.288 835.963 563.47 824.423 563.47 796.92C563.47 772.778 583.827 756.089 602.779 764.696C605.635 765.992 608.994 768.076 610.244 769.326C611.494 770.575 612.708 771.384 612.944 771.123C613.178 770.861 615.551 767.215 618.217 763.019L623.065 755.39L619.07 751.823ZM495.209 848.526C534.504 833.835 535.768 770.395 497.054 755.916C484.824 751.341 466.068 752.779 455.938 759.069C449.208 763.247 441.034 771.753 438.009 777.727C430.836 791.885 430.316 811.003 436.716 825.26C441.207 835.263 451.997 845.586 461.492 848.965C470.843 852.292 485.653 852.099 495.209 848.526ZM333.654 767.062C333.654 764.67 320.574 757.441 313.5 755.923C291.267 751.157 275.106 761.693 275.123 780.944C275.137 795.997 281.063 802.979 298.997 809.076C316.648 815.079 321.347 819.414 317.145 825.825C312.183 833.397 297.76 832.867 288.391 824.77L283.498 820.543L277.356 825.722C273.976 828.571 271.212 831.619 271.212 832.496C271.212 834.7 279.177 841.489 285.732 844.871C292.315 848.266 308.984 849.549 317.313 847.301C323.831 845.541 332.68 838.019 335.139 832.148C337.216 827.187 337.404 816.624 335.503 811.597C332.456 803.532 324.301 797.883 306.85 791.752C302.022 790.056 296.952 787.631 295.585 786.364C289.782 780.989 295.33 772.578 304.678 772.578C307.399 772.578 312.645 774.178 316.808 776.277L324.143 779.975L328.899 774.287C331.515 771.159 333.654 767.907 333.654 767.062ZM418.628 773.222L419.009 764.534L419.389 755.846H384.827C364.804 755.846 349.748 756.358 349.04 757.065C348.368 757.734 348.012 761.788 348.253 766.074L348.69 773.865H361.45H374.21L374.219 803.147C374.224 819.252 374.6 836.362 375.055 841.169L375.88 849.91L385.019 849.535L394.158 849.161L393.708 811.561L393.258 773.962L405.943 773.591L418.628 773.222Z" fill="#281A4F"/>
<path d="M470.604 772.536C464.523 774.375 459.175 779.42 455.606 786.683C445.422 807.416 458.029 833.108 478.366 833.064C489.36 833.041 500.854 824.576 503.959 814.214C505.856 807.882 505.99 796.798 504.243 790.514C502.594 784.575 494.626 775.306 489.238 773.054C484.662 771.143 476.007 770.902 470.604 772.536Z" fill="#281A4F"/>
<path d="M313.5 755.923C320.574 757.441 333.654 764.67 333.654 767.062C333.654 767.907 331.515 771.159 328.899 774.287L324.143 779.975L316.808 776.277C312.645 774.178 307.399 772.578 304.678 772.578C295.33 772.578 289.782 780.989 295.585 786.364C296.952 787.631 302.022 790.056 306.85 791.752C324.301 797.883 332.456 803.532 335.503 811.597C337.404 816.624 337.216 827.187 335.139 832.148C332.68 838.019 323.831 845.541 317.313 847.301C308.984 849.549 292.315 848.266 285.732 844.871C279.177 841.489 271.212 834.7 271.212 832.496C271.212 831.619 273.976 828.571 277.356 825.722L283.498 820.543L288.391 824.77C297.76 832.867 312.183 833.397 317.145 825.825C321.347 819.414 316.648 815.079 298.997 809.076C281.063 802.979 275.137 795.997 275.123 780.944C275.106 761.693 291.267 751.157 313.5 755.923Z" fill="white"/>
<path d="M419.009 764.534L418.628 773.222L405.943 773.591L393.258 773.962L393.708 811.561L394.158 849.161L385.019 849.535L375.88 849.91L375.055 841.169C374.6 836.362 374.224 819.252 374.219 803.147L374.21 773.865H361.45H348.69L348.253 766.074C348.012 761.788 348.368 757.734 349.04 757.065C349.748 756.358 364.804 755.846 384.827 755.846H419.389L419.009 764.534Z" fill="white"/>
<path fill-rule="evenodd" clip-rule="evenodd" d="M497.054 755.916C535.768 770.395 534.504 833.835 495.209 848.526C485.653 852.099 470.843 852.292 461.492 848.965C451.997 845.586 441.207 835.263 436.716 825.26C430.316 811.003 430.836 791.885 438.009 777.727C441.034 771.753 449.208 763.247 455.938 759.069C466.068 752.779 484.824 751.341 497.054 755.916ZM455.606 786.683C459.175 779.42 464.523 774.375 470.604 772.536C476.007 770.902 484.662 771.143 489.238 773.054C494.626 775.306 502.594 784.575 504.243 790.514C505.99 796.798 505.856 807.882 503.959 814.214C500.854 824.576 489.36 833.041 478.366 833.064C458.029 833.108 445.422 807.416 455.606 786.683Z" fill="white"/>
<path d="M608.351 746.258C612.049 747.356 616.873 749.86 619.07 751.823L623.065 755.39L618.217 763.019C615.551 767.215 613.178 770.861 612.944 771.123C612.708 771.384 611.494 770.575 610.244 769.326C608.994 768.076 605.635 765.992 602.779 764.696C583.827 756.089 563.47 772.778 563.47 796.92C563.47 824.423 587.288 835.963 607.171 818.091L613.272 812.607L618.627 818.062C621.571 821.062 623.981 824.169 623.981 824.967C623.981 827.186 612.485 836.828 605.779 840.233C597.793 844.289 585.622 846.171 577.429 844.617C563.838 842.04 555.131 835.435 549.043 823.087C545.29 815.472 544.75 813.032 544.36 801.938C544.003 791.801 544.437 787.841 546.621 781.282C555.718 753.95 582.698 738.643 608.351 746.258Z" fill="white"/>
<path d="M712.817 728.015C712.817 728.281 705.865 738.465 697.368 750.645C688.87 762.825 681.918 773.195 681.918 773.689C681.918 774.184 689.729 784.997 699.276 797.717C708.822 810.437 716.644 821.174 716.657 821.578C716.692 822.664 696.482 825.749 695.066 824.874C694.399 824.462 688.175 816.574 681.236 807.344L668.618 790.563L663.685 797.98L658.751 805.399L658.747 819.103L658.743 832.808L650.591 834.226C646.108 835.008 642.045 835.646 641.563 835.646C641.082 835.646 640.84 814.07 641.025 787.702L641.362 739.757L649.087 738.192C653.336 737.331 657.391 736.801 658.1 737.013C658.912 737.256 659.217 744.832 658.927 757.563C658.674 768.653 658.727 777.727 659.043 777.727C659.359 777.727 667.055 767.076 676.146 754.058L692.674 730.39L699.205 729.13C706.245 727.77 712.817 727.232 712.817 728.015Z" fill="white"/>
<path d="M775.582 719.64C778.591 721.176 781.054 722.785 781.054 723.217C781.054 725.302 772.949 737.821 771.626 737.781C770.791 737.756 768.662 736.908 766.892 735.896C759.294 731.554 746.407 735.258 743.622 742.584C742.557 745.381 742.777 746.688 744.757 749.34C746.704 751.945 749.69 753.202 759.15 755.397C776.872 759.508 782.433 764.636 783.38 777.745C784.25 789.755 781.784 796.456 773.408 804.851C765.053 813.222 757.524 816.346 745.741 816.327C737.535 816.314 726.788 812.415 723.283 808.181C721.579 806.12 723.144 803.287 732.896 790.789C733.089 790.541 735.26 791.872 737.719 793.747C746.11 800.145 757.264 799.265 763.63 791.701C770.782 783.203 766.928 777.846 751.428 774.738C745.503 773.55 738.592 771.53 736.071 770.251C727.464 765.883 723.332 751.826 726.95 739.217C729.646 729.818 737.764 721.721 748.504 717.717C755.33 715.172 768.686 716.121 775.582 719.64Z" fill="white"/>
<path fill-rule="evenodd" clip-rule="evenodd" d="M225.506 872.609L242.243 873.252L396.741 881.619L524.845 888.698L586.644 881.619L692.674 862.956L832.553 829.883V653.158H830.622L632.35 694.346L550.595 705.286L524.202 707.217L228.725 712.365L224.219 713.008L221 715.583L222.287 870.035L225.506 872.609ZM781.054 723.217C781.054 722.785 778.591 721.176 775.582 719.64C768.686 716.121 755.33 715.172 748.504 717.717C737.764 721.721 729.646 729.818 726.95 739.217C723.332 751.826 727.464 765.883 736.071 770.251C738.592 771.53 745.503 773.55 751.428 774.738C766.928 777.846 770.782 783.203 763.63 791.701C757.264 799.265 746.11 800.145 737.719 793.747C735.26 791.872 733.089 790.541 732.896 790.789C723.144 803.287 721.579 806.12 723.283 808.181C726.788 812.415 737.535 816.314 745.741 816.327C757.524 816.346 765.053 813.222 773.408 804.851C781.784 796.456 784.25 789.755 783.38 777.745C782.433 764.636 776.872 759.508 759.15 755.397C749.69 753.202 746.704 751.945 744.757 749.34C742.777 746.688 742.557 745.381 743.622 742.584C746.407 735.258 759.294 731.554 766.892 735.896C768.662 736.908 770.791 737.756 771.626 737.781C772.949 737.821 781.054 725.302 781.054 723.217ZM697.368 750.645C705.865 738.465 712.817 728.281 712.817 728.015C712.817 727.232 706.245 727.77 699.205 729.13L692.674 730.39L676.146 754.058C667.055 767.076 659.359 777.727 659.043 777.727C658.727 777.727 658.674 768.653 658.927 757.563C659.217 744.832 658.912 737.256 658.1 737.013C657.391 736.801 653.336 737.331 649.087 738.192L641.362 739.757L641.025 787.702C640.84 814.07 641.082 835.646 641.563 835.646C642.045 835.646 646.108 835.008 650.591 834.226L658.743 832.808L658.747 819.103L658.751 805.399L663.685 797.98L668.618 790.563L681.236 807.344C688.175 816.574 694.399 824.462 695.066 824.874C696.482 825.749 716.692 822.664 716.657 821.578C716.644 821.174 708.822 810.437 699.276 797.717C689.729 784.997 681.918 774.184 681.918 773.689C681.918 773.195 688.87 762.825 697.368 750.645ZM619.07 751.823C616.873 749.86 612.049 747.356 608.351 746.258C582.698 738.643 555.718 753.95 546.621 781.282C544.437 787.841 544.003 791.801 544.36 801.938C544.75 813.032 545.29 815.472 549.043 823.087C555.131 835.435 563.838 842.04 577.429 844.617C585.622 846.171 597.793 844.289 605.779 840.233C612.485 836.828 623.981 827.186 623.981 824.967C623.981 824.169 621.571 821.062 618.627 818.062L613.272 812.607L607.171 818.091C587.288 835.963 563.47 824.423 563.47 796.92C563.47 772.778 583.827 756.089 602.779 764.696C605.635 765.992 608.994 768.076 610.244 769.326C611.494 770.575 612.708 771.384 612.944 771.123C613.178 770.861 615.551 767.215 618.217 763.019L623.065 755.39L619.07 751.823ZM495.209 848.526C534.504 833.835 535.768 770.395 497.054 755.916C484.824 751.341 466.068 752.779 455.938 759.069C449.208 763.247 441.034 771.753 438.009 777.727C430.836 791.885 430.316 811.003 436.716 825.26C441.207 835.263 451.997 845.586 461.492 848.965C470.843 852.292 485.653 852.099 495.209 848.526ZM333.654 767.062C333.654 764.67 320.574 757.441 313.5 755.923C291.267 751.157 275.106 761.693 275.123 780.944C275.137 795.997 281.063 802.979 298.997 809.076C316.648 815.079 321.347 819.414 317.145 825.825C312.183 833.397 297.76 832.867 288.391 824.77L283.498 820.543L277.356 825.722C273.976 828.571 271.212 831.619 271.212 832.496C271.212 834.7 279.177 841.489 285.732 844.871C292.315 848.266 308.984 849.549 317.313 847.301C323.831 845.541 332.68 838.019 335.139 832.148C337.216 827.187 337.404 816.624 335.503 811.597C332.456 803.532 324.301 797.883 306.85 791.752C302.022 790.056 296.952 787.631 295.585 786.364C289.782 780.989 295.33 772.578 304.678 772.578C307.399 772.578 312.645 774.178 316.808 776.277L324.143 779.975L328.899 774.287C331.515 771.159 333.654 767.907 333.654 767.062ZM418.628 773.222L419.009 764.534L419.389 755.846H384.827C364.804 755.846 349.748 756.358 349.04 757.065C348.368 757.734 348.012 761.788 348.253 766.074L348.69 773.865H361.45H374.21L374.219 803.147C374.224 819.252 374.6 836.362 375.055 841.169L375.88 849.91L385.019 849.535L394.158 849.161L393.708 811.561L393.258 773.962L405.943 773.591L418.628 773.222Z" stroke="white" stroke-width="4" mask="url(#path-13-inside-1_5_2)"/>
<path d="M470.604 772.536C464.523 774.375 459.175 779.42 455.606 786.683C445.422 807.416 458.029 833.108 478.366 833.064C489.36 833.041 500.854 824.576 503.959 814.214C505.856 807.882 505.99 796.798 504.243 790.514C502.594 784.575 494.626 775.306 489.238 773.054C484.662 771.143 476.007 770.902 470.604 772.536Z" stroke="white" stroke-width="4" mask="url(#path-13-inside-1_5_2)"/>
<path d="M313.5 755.923C320.574 757.441 333.654 764.67 333.654 767.062C333.654 767.907 331.515 771.159 328.899 774.287L324.143 779.975L316.808 776.277C312.645 774.178 307.399 772.578 304.678 772.578C295.33 772.578 289.782 780.989 295.585 786.364C296.952 787.631 302.022 790.056 306.85 791.752C324.301 797.883 332.456 803.532 335.503 811.597C337.404 816.624 337.216 827.187 335.139 832.148C332.68 838.019 323.831 845.541 317.313 847.301C308.984 849.549 292.315 848.266 285.732 844.871C279.177 841.489 271.212 834.7 271.212 832.496C271.212 831.619 273.976 828.571 277.356 825.722L283.498 820.543L288.391 824.77C297.76 832.867 312.183 833.397 317.145 825.825C321.347 819.414 316.648 815.079 298.997 809.076C281.063 802.979 275.137 795.997 275.123 780.944C275.106 761.693 291.267 751.157 313.5 755.923Z" stroke="white" stroke-width="4" mask="url(#path-13-inside-1_5_2)"/>
<path d="M419.009 764.534L418.628 773.222L405.943 773.591L393.258 773.962L393.708 811.561L394.158 849.161L385.019 849.535L375.88 849.91L375.055 841.169C374.6 836.362 374.224 819.252 374.219 803.147L374.21 773.865H361.45H348.69L348.253 766.074C348.012 761.788 348.368 757.734 349.04 757.065C349.748 756.358 364.804 755.846 384.827 755.846H419.389L419.009 764.534Z" stroke="white" stroke-width="4" mask="url(#path-13-inside-1_5_2)"/>
<path fill-rule="evenodd" clip-rule="evenodd" d="M497.054 755.916C535.768 770.395 534.504 833.835 495.209 848.526C485.653 852.099 470.843 852.292 461.492 848.965C451.997 845.586 441.207 835.263 436.716 825.26C430.316 811.003 430.836 791.885 438.009 777.727C441.034 771.753 449.208 763.247 455.938 759.069C466.068 752.779 484.824 751.341 497.054 755.916ZM455.606 786.683C459.175 779.42 464.523 774.375 470.604 772.536C476.007 770.902 484.662 771.143 489.238 773.054C494.626 775.306 502.594 784.575 504.243 790.514C505.99 796.798 505.856 807.882 503.959 814.214C500.854 824.576 489.36 833.041 478.366 833.064C458.029 833.108 445.422 807.416 455.606 786.683Z" stroke="white" stroke-width="4" mask="url(#path-13-inside-1_5_2)"/>
<path d="M608.351 746.258C612.049 747.356 616.873 749.86 619.07 751.823L623.065 755.39L618.217 763.019C615.551 767.215 613.178 770.861 612.944 771.123C612.708 771.384 611.494 770.575 610.244 769.326C608.994 768.076 605.635 765.992 602.779 764.696C583.827 756.089 563.47 772.778 563.47 796.92C563.47 824.423 587.288 835.963 607.171 818.091L613.272 812.607L618.627 818.062C621.571 821.062 623.981 824.169 623.981 824.967C623.981 827.186 612.485 836.828 605.779 840.233C597.793 844.289 585.622 846.171 577.429 844.617C563.838 842.04 555.131 835.435 549.043 823.087C545.29 815.472 544.75 813.032 544.36 801.938C544.003 791.801 544.437 787.841 546.621 781.282C555.718 753.95 582.698 738.643 608.351 746.258Z" stroke="white" stroke-width="4" mask="url(#path-13-inside-1_5_2)"/>
<path d="M712.817 728.015C712.817 728.281 705.865 738.465 697.368 750.645C688.87 762.825 681.918 773.195 681.918 773.689C681.918 774.184 689.729 784.997 699.276 797.717C708.822 810.437 716.644 821.174 716.657 821.578C716.692 822.664 696.482 825.749 695.066 824.874C694.399 824.462 688.175 816.574 681.236 807.344L668.618 790.563L663.685 797.98L658.751 805.399L658.747 819.103L658.743 832.808L650.591 834.226C646.108 835.008 642.045 835.646 641.563 835.646C641.082 835.646 640.84 814.07 641.025 787.702L641.362 739.757L649.087 738.192C653.336 737.331 657.391 736.801 658.1 737.013C658.912 737.256 659.217 744.832 658.927 757.563C658.674 768.653 658.727 777.727 659.043 777.727C659.359 777.727 667.055 767.076 676.146 754.058L692.674 730.39L699.205 729.13C706.245 727.77 712.817 727.232 712.817 728.015Z" stroke="white" stroke-width="4" mask="url(#path-13-inside-1_5_2)"/>
<path d="M775.582 719.64C778.591 721.176 781.054 722.785 781.054 723.217C781.054 725.302 772.949 737.821 771.626 737.781C770.791 737.756 768.662 736.908 766.892 735.896C759.294 731.554 746.407 735.258 743.622 742.584C742.557 745.381 742.777 746.688 744.757 749.34C746.704 751.945 749.69 753.202 759.15 755.397C776.872 759.508 782.433 764.636 783.38 777.745C784.25 789.755 781.784 796.456 773.408 804.851C765.053 813.222 757.524 816.346 745.741 816.327C737.535 816.314 726.788 812.415 723.283 808.181C721.579 806.12 723.144 803.287 732.896 790.789C733.089 790.541 735.26 791.872 737.719 793.747C746.11 800.145 757.264 799.265 763.63 791.701C770.782 783.203 766.928 777.846 751.428 774.738C745.503 773.55 738.592 771.53 736.071 770.251C727.464 765.883 723.332 751.826 726.95 739.217C729.646 729.818 737.764 721.721 748.504 717.717C755.33 715.172 768.686 716.121 775.582 719.64Z" stroke="white" stroke-width="4" mask="url(#path-13-inside-1_5_2)"/>
</g>
<defs>
<clipPath id="clip0_5_2">
<rect width="1024" height="1024" fill="white"/>
</clipPath>
</defs>
</svg>
